<svg width="24" height="24" viewBox="0 0 24 24" fill="none" xmlns="http://www.w3.org/2000/svg">
<path d="M12.029 20.5001C9.65988 20.5001 7.65096 19.6758 6.0023 18.0271C4.35363 16.3783 3.5293 14.3693 3.5293 12.0001C3.5293 10.0271 4.1398 8.27329 5.3608 6.73862C6.58196 5.20396 8.20855 4.21487 10.2405 3.77137C10.4509 3.71871 10.6361 3.72379 10.7963 3.78663C10.9566 3.84946 11.0868 3.94304 11.1868 4.06737C11.2868 4.19187 11.3458 4.34287 11.3638 4.52037C11.3816 4.69787 11.34 4.87513 11.2388 5.05213C11.0323 5.42779 10.879 5.81804 10.779 6.22287C10.679 6.62771 10.629 7.05346 10.629 7.50012C10.629 9.13896 11.2027 10.532 12.35 11.6794C13.4972 12.8265 14.8902 13.4001 16.529 13.4001C17.0202 13.4001 17.4895 13.338 17.9368 13.2136C18.3843 13.0893 18.776 12.945 19.1118 12.7809C19.276 12.7092 19.4362 12.6839 19.5925 12.7049C19.749 12.726 19.8825 12.7783 19.993 12.8616C20.1159 12.945 20.207 13.0588 20.2665 13.2031C20.3262 13.3473 20.333 13.5168 20.2868 13.7116C19.9316 15.6783 18.9749 17.3014 17.4165 18.5809C15.8582 19.8604 14.0624 20.5001 12.029 20.5001ZM12.029 19.0001C13.4957 19.0001 14.8124 18.596 15.979 17.7876C17.1457 16.9793 17.9957 15.9251 18.529 14.6251C18.1957 14.7085 17.8624 14.7751 17.529 14.8251C17.1957 14.8751 16.8624 14.9001 16.529 14.9001C14.479 14.9001 12.7332 14.1793 11.2915 12.7376C9.84988 11.296 9.12905 9.55012 9.12905 7.50012C9.12905 7.16679 9.15405 6.83346 9.20405 6.50012C9.25405 6.16679 9.32071 5.83346 9.40405 5.50012C8.10405 6.03346 7.04988 6.88346 6.24155 8.05012C5.43321 9.21679 5.02905 10.5335 5.02905 12.0001C5.02905 13.9335 5.71238 15.5835 7.07905 16.9501C8.44571 18.3168 10.0957 19.0001 12.029 19.0001Z" fill="#484647"/>
</svg>
