<svg width="24" height="24" viewBox="0 0 24 24" fill="none" xmlns="http://www.w3.org/2000/svg">
<path d="M10.7367 13.2633H5.26332C4.90885 13.2633 4.60963 13.1414 4.36567 12.8976C4.12189 12.6537 4 12.3545 4 12C4 11.6455 4.12189 11.3463 4.36567 11.1023C4.60963 10.8586 4.90885 10.7367 5.26332 10.7367H10.7367V5.26332C10.7367 4.90885 10.8586 4.60963 11.1023 4.36567C11.3463 4.12189 11.6455 4 12 4C12.3545 4 12.6537 4.12189 12.8977 4.36567C13.1414 4.60963 13.2633 4.90885 13.2633 5.26332V10.7367H18.7367C19.0912 10.7367 19.3904 10.8586 19.6343 11.1023C19.8781 11.3463 20 11.6455 20 12C20 12.3545 19.8781 12.6537 19.6343 12.8976C19.3904 13.1414 19.0912 13.2633 18.7367 13.2633H13.2633V18.7367C13.2633 19.0912 13.1414 19.3904 12.8977 19.6343C12.6537 19.8781 12.3545 20 12 20C11.6455 20 11.3463 19.8781 11.1023 19.6343C10.8586 19.3904 10.7367 19.0912 10.7367 18.7367V13.2633Z" fill="#484647"/>
</svg>
