<svg width="24" height="24" viewBox="0 0 24 24" fill="none" xmlns="http://www.w3.org/2000/svg">
<path d="M8.08975 22.1795C7.53975 22.1795 7.06892 21.9837 6.67725 21.592C6.28558 21.2003 6.08975 20.7295 6.08975 20.1795C6.08975 19.6295 6.28558 19.1587 6.67725 18.767C7.06892 18.3753 7.53975 18.1795 8.08975 18.1795C8.63975 18.1795 9.11058 18.3753 9.50225 18.767C9.89392 19.1587 10.0898 19.6295 10.0898 20.1795C10.0898 20.7295 9.89392 21.2003 9.50225 21.592C9.11058 21.9837 8.63975 22.1795 8.08975 22.1795ZM18.0898 22.1795C17.5398 22.1795 17.0689 21.9837 16.6773 21.592C16.2856 21.2003 16.0898 20.7295 16.0898 20.1795C16.0898 19.6295 16.2856 19.1587 16.6773 18.767C17.0689 18.3753 17.5398 18.1795 18.0898 18.1795C18.6398 18.1795 19.1106 18.3753 19.5023 18.767C19.8939 19.1587 20.0898 19.6295 20.0898 20.1795C20.0898 20.7295 19.8939 21.2003 19.5023 21.592C19.1106 21.9837 18.6398 22.1795 18.0898 22.1795ZM7.38925 6.1795L9.65175 10.9045H16.6278L19.2222 6.1795H7.38925ZM6.3435 4H20.8665C21.32 4 21.6651 4.20075 21.9018 4.60225C22.1383 5.00375 22.1469 5.41133 21.9278 5.825L18.5153 11.992C18.3239 12.3372 18.0672 12.6064 17.7452 12.7998C17.4231 12.9931 17.0705 13.0898 16.6875 13.0898H9.2915L8.24525 15H19.0898C19.3984 15 19.6573 15.1044 19.8663 15.3133C20.0751 15.5223 20.1795 15.7811 20.1795 16.0898C20.1795 16.3984 20.0751 16.6573 19.8663 16.8663C19.6573 17.0751 19.3984 17.1795 19.0898 17.1795H8.08975C7.29592 17.1795 6.69933 16.8343 6.3 16.144C5.90083 15.4538 5.88617 14.7698 6.256 14.092L7.588 11.6898L4.036 4.1795H3.08975C2.78108 4.1795 2.52225 4.07508 2.31325 3.86625C2.10442 3.65725 2 3.39842 2 3.08975C2 2.78108 2.10442 2.52225 2.31325 2.31325C2.52225 2.10442 2.78108 2 3.08975 2H4.679C4.89017 2 5.09025 2.05675 5.27925 2.17025C5.46825 2.28375 5.61 2.44458 5.7045 2.65275L6.3435 4Z" fill="#484647"/>
</svg>
